<?xml version="1.0" standalone="no"?>
<!DOCTYPE svg PUBLIC "-//W3C//DTD SVG 20010904//EN"
 "http://www.w3.org/TR/2001/REC-SVG-20010904/DTD/svg10.dtd">
<svg version="1.0" xmlns="http://www.w3.org/2000/svg"
 width="956.000000pt" height="956.000000pt" viewBox="0 0 956.000000 956.000000"
 preserveAspectRatio="xMidYMid meet">
<metadata>
Created by potrace 1.11, written by Peter Selinger 2001-2013
</metadata>
<g transform="translate(0.000000,956.000000) scale(0.100000,-0.100000)"
fill="#000000" stroke="none">
<path d="M4745 9541 c-16 -9 -34 -20 -40 -26 -7 -5 -29 -19 -51 -30 -21 -11
-41 -22 -44 -25 -6 -6 -61 -40 -130 -78 -25 -13 -52 -31 -61 -38 -8 -8 -19
-14 -22 -14 -4 0 -31 -16 -61 -35 -30 -19 -60 -35 -66 -35 -5 0 -10 -4 -10
-10 0 -5 -6 -10 -14 -10 -7 0 -19 -7 -26 -15 -7 -8 -16 -12 -21 -9 -5 3 -9 0
-9 -5 0 -6 -7 -11 -15 -11 -8 0 -15 -3 -15 -7 0 -5 -10 -13 -23 -19 -12 -6
-107 -62 -212 -124 -104 -62 -200 -118 -212 -124 -13 -6 -23 -14 -23 -17 0 -3
-22 -16 -50 -29 -27 -13 -50 -27 -50 -32 0 -4 -5 -8 -10 -8 -6 0 -47 -22 -91
-50 -44 -27 -82 -50 -84 -50 -1 0 -50 -29 -109 -65 -58 -36 -111 -65 -116 -65
-6 0 -10 -3 -10 -8 0 -4 -15 -13 -32 -21 -18 -8 -35 -17 -38 -21 -8 -10 -331
-200 -340 -200 -5 0 -10 -3 -12 -8 -3 -6 -155 -100 -231 -142 -52 -28 -192
-112 -219 -131 -15 -11 -32 -19 -38 -19 -5 0 -10 -4 -10 -10 0 -5 -9 -10 -20
-10 -11 0 -20 -4 -20 -9 0 -5 -15 -16 -32 -25 -18 -9 -55 -31 -83 -48 -27 -17
-59 -36 -70 -42 -18 -10 -360 -214 -395 -237 -95 -59 -423 -249 -430 -249 -6
0 -10 -4 -10 -8 0 -5 -15 -16 -32 -25 -18 -9 -50 -27 -70 -39 -59 -37 -201
-120 -225 -132 -13 -6 -23 -14 -23 -18 0 -5 -7 -8 -15 -8 -8 0 -15 -4 -15 -10
0 -5 -7 -10 -15 -10 -13 0 -15 -272 -15 -2389 l0 -2390 73 -43 c39 -24 84 -49
100 -56 15 -6 27 -16 27 -22 0 -5 6 -10 13 -10 6 0 40 -18 75 -40 34 -22 67
-40 72 -40 6 0 10 -5 10 -10 0 -6 3 -9 8 -8 4 1 21 -6 37 -16 17 -11 46 -29
65 -40 19 -12 44 -27 55 -34 11 -6 34 -19 50 -28 17 -10 46 -27 65 -39 19 -12
39 -22 44 -23 5 0 12 -4 15 -9 7 -10 36 -28 71 -46 14 -6 30 -16 35 -20 6 -5
138 -84 295 -177 157 -93 299 -178 316 -190 16 -11 36 -20 42 -20 7 0 12 -4
12 -9 0 -5 8 -11 18 -15 9 -3 31 -15 47 -26 17 -11 39 -24 50 -30 11 -5 37
-20 57 -32 121 -75 212 -128 220 -128 4 0 8 -4 8 -10 0 -5 5 -10 10 -10 6 0
29 -11 51 -26 22 -14 55 -33 72 -43 77 -44 423 -251 432 -259 6 -4 17 -11 25
-15 8 -4 33 -18 55 -31 56 -35 168 -100 180 -105 5 -2 14 -8 20 -13 17 -16
178 -108 187 -108 4 0 8 -4 8 -10 0 -5 5 -10 10 -10 6 0 29 -12 53 -27 23 -15
53 -33 67 -40 27 -14 62 -35 70 -43 3 -3 16 -11 29 -18 13 -8 38 -22 55 -32
18 -9 124 -73 236 -140 113 -68 221 -132 240 -143 19 -10 47 -28 62 -38 14
-11 28 -19 31 -19 3 0 42 -22 87 -50 45 -27 86 -50 91 -50 5 0 9 -3 9 -7 0 -5
11 -13 24 -19 19 -9 28 -7 52 13 16 12 34 23 41 23 6 0 18 6 25 13 14 14 90
62 98 62 3 0 31 17 63 38 31 20 59 37 61 37 2 0 52 29 111 65 59 36 111 65
116 65 5 0 9 5 9 10 0 6 5 10 10 10 6 0 29 12 53 27 60 39 96 60 145 85 23 12
42 26 42 30 0 4 4 8 10 8 13 0 184 102 188 112 2 5 8 8 14 8 5 0 99 54 209
120 110 66 204 120 209 120 4 0 10 4 12 8 2 4 46 33 98 63 313 184 475 282
478 290 2 5 8 9 13 9 14 0 252 141 261 154 4 6 8 8 8 3 0 -4 38 18 85 48 47
30 86 54 88 53 1 -1 13 5 27 14 28 18 246 149 300 181 19 11 47 27 62 36 89
53 212 128 226 136 10 6 35 21 57 33 22 12 54 31 70 42 17 11 37 23 45 27 14
6 88 51 135 81 11 6 39 22 63 34 23 12 42 26 42 30 0 4 5 8 11 8 6 0 30 12 53
28 22 15 55 34 71 42 17 8 32 18 35 21 3 3 25 16 50 30 25 13 59 33 75 45 17
12 37 24 45 28 8 4 24 12 35 19 11 7 42 25 68 40 l47 28 0 2387 0 2387 -93 55
c-50 30 -101 60 -112 66 -11 6 -50 29 -88 52 -37 23 -72 42 -77 42 -6 0 -10 5
-10 10 0 6 -4 10 -8 10 -5 0 -46 23 -93 51 -46 27 -91 54 -99 59 -8 5 -52 32
-98 60 -46 27 -86 50 -89 50 -3 0 -17 8 -31 19 -15 10 -43 28 -62 39 -19 10
-127 75 -240 142 -113 67 -219 131 -236 141 -18 9 -69 40 -114 68 -45 28 -84
51 -86 51 -2 0 -21 11 -42 23 -20 13 -50 32 -67 43 -16 10 -33 17 -37 16 -5
-1 -8 2 -8 8 0 5 -7 10 -15 10 -8 0 -15 4 -15 9 0 5 -8 11 -17 15 -10 3 -47
24 -83 46 -36 22 -73 43 -82 46 -10 4 -18 10 -18 14 0 4 -8 10 -17 13 -10 4
-40 20 -68 37 -27 17 -58 33 -67 37 -10 3 -18 9 -18 14 0 5 -4 9 -8 9 -6 0
-427 247 -562 330 -86 53 -226 136 -234 139 -6 2 -17 10 -24 18 -7 7 -20 13
-28 13 -8 0 -14 5 -14 10 0 6 -4 10 -9 10 -12 0 -232 130 -249 147 -7 7 -19
13 -27 13 -7 0 -15 3 -17 8 -1 4 -24 18 -50 32 -27 13 -48 28 -48 32 0 5 -5 8
-11 8 -5 0 -62 32 -125 70 -64 39 -117 70 -119 70 -2 0 -40 23 -84 50 -44 28
-85 50 -91 50 -5 0 -10 5 -10 10 0 6 -4 10 -9 10 -5 0 -45 22 -88 48 -100 62
-104 63 -138 43z"/>
</g>
</svg>
