<svg width="86" height="86" viewBox="0 0 86 86" fill="none" xmlns="http://www.w3.org/2000/svg">
<path d="M0 6.15773C0 2.75869 2.82746 0 6.3133 0H79.1057C82.5927 0 85.419 2.75869 85.419 6.15773V79.8035C85.419 83.2037 82.5927 85.9601 79.1057 85.9601H6.3133C2.82746 85.9601 0 83.2037 0 79.8047V6.1566L0 6.15773Z" fill="black"/>
<path fill-rule="evenodd" clip-rule="evenodd" d="M19.445 27.8428C23.9433 27.8428 26.7437 24.862 26.7437 21.1372C26.6591 17.3278 23.9433 14.4304 19.5307 14.4304C15.1148 14.4304 12.231 17.3278 12.231 21.1372C12.231 24.862 15.0302 27.8428 19.3605 27.8428H19.4439H19.445ZM25.8936 71.957V33.1415H12.9919V71.957H25.8936ZM45.935 71.957H33.0344C33.0355 71.7285 33.203 36.7721 33.0355 33.1426H45.9361V38.6375C47.6508 35.9931 50.7201 32.2317 57.5639 32.2317C66.0519 32.2317 72.4159 37.7795 72.4159 49.7015V71.957H59.5153V51.1941C59.5153 45.9755 57.6473 42.4164 52.9799 42.4164C49.4152 42.4164 47.2923 44.8166 46.36 47.1356C46.0195 47.9631 45.935 49.1243 45.935 50.2832V71.957ZM33.0344 71.9581V71.957C33.0344 71.9578 33.0344 71.9581 33.0344 71.9581Z" fill="white"/>
</svg>
