<svg width="140" height="80" viewBox="0 0 140 80" fill="none" xmlns="http://www.w3.org/2000/svg">
<rect width="140" height="80" fill="black"/>
<path d="M121.365 42.0353C120.137 42.2009 119.009 43.0106 118.424 44.1513C117.921 45.1221 117.86 46.4146 118.271 47.4496C118.546 48.1536 119.105 48.8758 119.682 49.2851C120.408 49.8004 121.12 50.0349 122.02 50.058L122.523 50.0718L122.553 50.2512C122.65 50.8262 122.322 51.9257 121.627 53.3334C121.299 53.9913 121.286 54.0327 121.395 53.9867C121.671 53.8763 122.702 52.9102 123.288 52.2201C125.783 49.2621 126.666 45.9592 125.477 44.018C124.612 42.6103 122.964 41.8192 121.365 42.0353Z" fill="#915CF7"/>
<path d="M105.185 43.8C105.185 44.1833 105.26 44.5167 105.41 44.8C105.576 45.0667 105.785 45.2917 106.035 45.475C106.285 45.6417 106.568 45.7667 106.885 45.85C107.218 45.9333 107.56 45.975 107.91 45.975C108.16 45.975 108.418 45.95 108.685 45.9C108.968 45.8333 109.218 45.7417 109.435 45.625C109.668 45.4917 109.86 45.325 110.01 45.125C110.16 44.9083 110.235 44.6417 110.235 44.325C110.235 43.7917 109.876 43.3917 109.16 43.125C108.46 42.8583 107.476 42.5917 106.21 42.325C105.693 42.2083 105.185 42.075 104.685 41.925C104.201 41.7583 103.768 41.55 103.385 41.3C103.001 41.0333 102.693 40.7083 102.46 40.325C102.226 39.925 102.11 39.4417 102.11 38.875C102.11 38.0417 102.268 37.3583 102.585 36.825C102.918 36.2917 103.351 35.875 103.885 35.575C104.418 35.2583 105.018 35.0417 105.685 34.925C106.351 34.7917 107.035 34.725 107.735 34.725C108.435 34.725 109.11 34.7917 109.76 34.925C110.426 35.0583 111.018 35.2833 111.535 35.6C112.051 35.9167 112.476 36.3417 112.81 36.875C113.16 37.3917 113.368 38.05 113.435 38.85H110.06C110.01 38.1667 109.751 37.7083 109.285 37.475C108.818 37.225 108.268 37.1 107.635 37.1C107.435 37.1 107.218 37.1167 106.985 37.15C106.751 37.1667 106.535 37.2167 106.335 37.3C106.151 37.3833 105.993 37.5083 105.86 37.675C105.726 37.825 105.66 38.0333 105.66 38.3C105.66 38.6167 105.776 38.875 106.01 39.075C106.243 39.275 106.543 39.4417 106.91 39.575C107.293 39.6917 107.726 39.8 108.21 39.9C108.693 40 109.185 40.1083 109.685 40.225C110.201 40.3417 110.701 40.4833 111.185 40.65C111.685 40.8167 112.126 41.0417 112.51 41.325C112.893 41.5917 113.201 41.9333 113.435 42.35C113.668 42.75 113.785 43.25 113.785 43.85C113.785 44.7 113.61 45.4167 113.26 46C112.926 46.5667 112.485 47.025 111.935 47.375C111.385 47.725 110.751 47.9667 110.035 48.1C109.335 48.25 108.618 48.325 107.885 48.325C107.135 48.325 106.401 48.25 105.685 48.1C104.968 47.95 104.326 47.7 103.76 47.35C103.21 47 102.751 46.5417 102.385 45.975C102.035 45.3917 101.843 44.6667 101.81 43.8H105.185Z" fill="white"/>
<path d="M96.3263 41.5C96.3263 40.9667 96.2763 40.4583 96.1763 39.975C96.0763 39.475 95.9013 39.0417 95.6513 38.675C95.418 38.2917 95.1097 37.9833 94.7263 37.75C94.343 37.5167 93.8596 37.4 93.2763 37.4C92.693 37.4 92.2013 37.5167 91.8013 37.75C91.4013 37.9833 91.0763 38.2917 90.8263 38.675C90.593 39.0583 90.418 39.5 90.3013 40C90.2013 40.4833 90.1513 40.9917 90.1513 41.525C90.1513 42.025 90.2097 42.525 90.3263 43.025C90.443 43.525 90.6263 43.975 90.8763 44.375C91.143 44.7583 91.468 45.075 91.8513 45.325C92.2513 45.5583 92.7263 45.675 93.2763 45.675C93.8596 45.675 94.343 45.5583 94.7263 45.325C95.1263 45.0917 95.443 44.7833 95.6763 44.4C95.9096 44 96.0763 43.55 96.1763 43.05C96.2763 42.55 96.3263 42.0333 96.3263 41.5ZM96.3763 46.35H96.3263C95.9097 47.05 95.3596 47.5583 94.6763 47.875C94.0096 48.175 93.2513 48.325 92.4013 48.325C91.4346 48.325 90.5847 48.1417 89.8513 47.775C89.118 47.3917 88.5096 46.8833 88.0263 46.25C87.5596 45.6 87.2013 44.8583 86.9513 44.025C86.718 43.1917 86.6013 42.325 86.6013 41.425C86.6013 40.5583 86.718 39.725 86.9513 38.925C87.2013 38.1083 87.5596 37.3917 88.0263 36.775C88.5096 36.1583 89.1097 35.6667 89.8263 35.3C90.543 34.9167 91.3763 34.725 92.3263 34.725C93.093 34.725 93.818 34.8917 94.5013 35.225C95.2013 35.5417 95.7513 36.0167 96.1513 36.65H96.2013V30.15H99.7513V48H96.3763V46.35Z" fill="white"/>
<path d="M77.874 35.075H81.249V37.475H81.299C81.4657 37.075 81.6907 36.7083 81.974 36.375C82.2574 36.025 82.5824 35.7333 82.949 35.5C83.3157 35.25 83.7074 35.0583 84.124 34.925C84.5407 34.7917 84.974 34.725 85.424 34.725C85.6574 34.725 85.9157 34.7667 86.199 34.85V38.15C86.0324 38.1167 85.8324 38.0917 85.599 38.075C85.3657 38.0417 85.1407 38.025 84.924 38.025C84.274 38.025 83.724 38.1333 83.274 38.35C82.824 38.5667 82.4574 38.8667 82.174 39.25C81.9074 39.6167 81.7157 40.05 81.599 40.55C81.4824 41.05 81.424 41.5917 81.424 42.175V48H77.874V35.075Z" fill="white"/>
<path d="M63.3685 39.05C63.4185 38.2167 63.6268 37.525 63.9935 36.975C64.3602 36.425 64.8268 35.9833 65.3935 35.65C65.9602 35.3167 66.5935 35.0833 67.2935 34.95C68.0102 34.8 68.7268 34.725 69.4435 34.725C70.0935 34.725 70.7518 34.775 71.4185 34.875C72.0852 34.9583 72.6935 35.1333 73.2435 35.4C73.7935 35.6667 74.2435 36.0417 74.5935 36.525C74.9435 36.9917 75.1185 37.6167 75.1185 38.4V45.125C75.1185 45.7083 75.1518 46.2667 75.2185 46.8C75.2852 47.3333 75.4018 47.7333 75.5685 48H71.9685C71.9018 47.8 71.8435 47.6 71.7935 47.4C71.7602 47.1833 71.7352 46.9667 71.7185 46.75C71.1518 47.3333 70.4852 47.7417 69.7185 47.975C68.9518 48.2083 68.1685 48.325 67.3685 48.325C66.7518 48.325 66.1768 48.25 65.6435 48.1C65.1102 47.95 64.6435 47.7167 64.2435 47.4C63.8435 47.0833 63.5268 46.6833 63.2935 46.2C63.0768 45.7167 62.9685 45.1417 62.9685 44.475C62.9685 43.7417 63.0935 43.1417 63.3435 42.675C63.6102 42.1917 63.9435 41.8083 64.3435 41.525C64.7602 41.2417 65.2268 41.0333 65.7435 40.9C66.2768 40.75 66.8102 40.6333 67.3435 40.55C67.8768 40.4667 68.4018 40.4 68.9185 40.35C69.4352 40.3 69.8935 40.225 70.2935 40.125C70.6935 40.025 71.0102 39.8833 71.2435 39.7C71.4768 39.5 71.5852 39.2167 71.5685 38.85C71.5685 38.4667 71.5018 38.1667 71.3685 37.95C71.2518 37.7167 71.0852 37.5417 70.8685 37.425C70.6685 37.2917 70.4268 37.2083 70.1435 37.175C69.8768 37.125 69.5852 37.1 69.2685 37.1C68.5685 37.1 68.0185 37.25 67.6185 37.55C67.2185 37.85 66.9852 38.35 66.9185 39.05H63.3685ZM71.5685 41.675C71.4185 41.8083 71.2268 41.9167 70.9935 42C70.7768 42.0667 70.5352 42.125 70.2685 42.175C70.0185 42.225 69.7518 42.2667 69.4685 42.3C69.1852 42.3333 68.9018 42.375 68.6185 42.425C68.3518 42.475 68.0852 42.5417 67.8185 42.625C67.5685 42.7083 67.3435 42.825 67.1435 42.975C66.9602 43.1083 66.8102 43.2833 66.6935 43.5C66.5768 43.7167 66.5185 43.9917 66.5185 44.325C66.5185 44.6417 66.5768 44.9083 66.6935 45.125C66.8102 45.3417 66.9685 45.5167 67.1685 45.65C67.3685 45.7667 67.6018 45.85 67.8685 45.9C68.1352 45.95 68.4102 45.975 68.6935 45.975C69.3935 45.975 69.9352 45.8583 70.3185 45.625C70.7018 45.3917 70.9852 45.1167 71.1685 44.8C71.3518 44.4667 71.4602 44.1333 71.4935 43.8C71.5435 43.4667 71.5685 43.2 71.5685 43V41.675Z" fill="white"/>
<path d="M54.2602 44.95C54.7602 44.95 55.2019 44.85 55.5852 44.65C55.9685 44.45 56.2852 44.1833 56.5352 43.85C56.7852 43.5167 56.9685 43.1417 57.0852 42.725C57.2185 42.2917 57.2852 41.8417 57.2852 41.375C57.2852 40.8417 57.2352 40.3417 57.1352 39.875C57.0352 39.3917 56.8685 38.9667 56.6352 38.6C56.4019 38.2333 56.0935 37.9417 55.7102 37.725C55.3269 37.5083 54.8435 37.4 54.2602 37.4C53.7602 37.4 53.3269 37.5 52.9602 37.7C52.6102 37.9 52.3102 38.175 52.0602 38.525C51.8269 38.8583 51.6519 39.25 51.5352 39.7C51.4352 40.1333 51.3852 40.5917 51.3852 41.075C51.3852 41.5417 51.4269 42.0083 51.5102 42.475C51.6102 42.925 51.7685 43.3333 51.9852 43.7C52.2185 44.0667 52.5185 44.3667 52.8852 44.6C53.2519 44.8333 53.7102 44.95 54.2602 44.95ZM60.6602 47.175C60.6602 47.6917 60.5852 48.2833 60.4352 48.95C60.3019 49.6167 60.0019 50.2333 59.5352 50.8C59.0685 51.3833 58.3935 51.875 57.5102 52.275C56.6269 52.675 55.4435 52.875 53.9602 52.875C53.3269 52.875 52.6769 52.7917 52.0102 52.625C51.3602 52.475 50.7602 52.2333 50.2102 51.9C49.6769 51.5667 49.2269 51.1333 48.8602 50.6C48.5102 50.0833 48.3102 49.4583 48.2602 48.725H51.7852C51.9519 49.3917 52.2769 49.85 52.7602 50.1C53.2435 50.3667 53.8019 50.5 54.4352 50.5C55.4352 50.5 56.1602 50.2 56.6102 49.6C57.0769 49 57.3019 48.2417 57.2852 47.325V45.625H57.2352C56.8519 46.3083 56.3019 46.8167 55.5852 47.15C54.8852 47.4667 54.1435 47.625 53.3602 47.625C52.3935 47.625 51.5602 47.4583 50.8602 47.125C50.1602 46.775 49.5852 46.3083 49.1352 45.725C48.6852 45.125 48.3519 44.4333 48.1352 43.65C47.9352 42.85 47.8352 42.0083 47.8352 41.125C47.8352 40.2917 47.9519 39.4917 48.1852 38.725C48.4352 37.9417 48.7935 37.2583 49.2602 36.675C49.7269 36.075 50.3019 35.6 50.9852 35.25C51.6852 34.9 52.4852 34.725 53.3852 34.725C54.2352 34.725 54.9769 34.8833 55.6102 35.2C56.2602 35.5167 56.8019 36.05 57.2352 36.8H57.2852V35.075H60.6602V47.175Z" fill="white"/>
<path d="M42.5799 40.15C42.4132 39.25 42.1132 38.5667 41.6799 38.1C41.2632 37.6333 40.6215 37.4 39.7549 37.4C39.1882 37.4 38.7132 37.5 38.3299 37.7C37.9632 37.8833 37.6632 38.1167 37.4299 38.4C37.2132 38.6833 37.0549 38.9833 36.9549 39.3C36.8715 39.6167 36.8215 39.9 36.8049 40.15H42.5799ZM36.8049 42.4C36.8549 43.55 37.1465 44.3833 37.6799 44.9C38.2132 45.4167 38.9799 45.675 39.9799 45.675C40.6966 45.675 41.3132 45.5 41.8299 45.15C42.3466 44.7833 42.6632 44.4 42.7799 44H45.9049C45.4049 45.55 44.6382 46.6583 43.6049 47.325C42.5715 47.9917 41.3215 48.325 39.8549 48.325C38.8382 48.325 37.9215 48.1667 37.1049 47.85C36.2882 47.5167 35.5965 47.05 35.0299 46.45C34.4632 45.85 34.0215 45.1333 33.7049 44.3C33.4049 43.4667 33.2549 42.55 33.2549 41.55C33.2549 40.5833 33.4132 39.6833 33.7299 38.85C34.0465 38.0167 34.4965 37.3 35.0799 36.7C35.6632 36.0833 36.3549 35.6 37.1549 35.25C37.9715 34.9 38.8715 34.725 39.8549 34.725C40.9549 34.725 41.9132 34.9417 42.7299 35.375C43.5465 35.7917 44.2132 36.3583 44.7299 37.075C45.2632 37.7917 45.6465 38.6083 45.8799 39.525C46.1132 40.4417 46.1966 41.4 46.1299 42.4H36.8049Z" fill="white"/>
<path d="M20.1379 38.225H24.4379C25.3379 38.225 26.0129 38.025 26.4629 37.625C26.9129 37.225 27.1379 36.575 27.1379 35.675C27.1379 34.8083 26.9129 34.1833 26.4629 33.8C26.0129 33.4 25.3379 33.2 24.4379 33.2H20.1379V38.225ZM16.2129 30.15H25.8379C26.6379 30.15 27.3546 30.2833 27.9879 30.55C28.6379 30.8 29.1879 31.15 29.6379 31.6C30.1046 32.05 30.4546 32.575 30.6879 33.175C30.9379 33.7583 31.0629 34.3917 31.0629 35.075C31.0629 36.125 30.8379 37.0333 30.3879 37.8C29.9546 38.5667 29.2379 39.15 28.2379 39.55V39.6C28.7212 39.7333 29.1212 39.9417 29.4379 40.225C29.7546 40.4917 30.0129 40.8167 30.2129 41.2C30.4129 41.5667 30.5546 41.975 30.6379 42.425C30.7379 42.875 30.8046 43.325 30.8379 43.775C30.8546 44.0583 30.8712 44.3917 30.8879 44.775C30.9046 45.1583 30.9296 45.55 30.9629 45.95C31.0129 46.35 31.0796 46.7333 31.1629 47.1C31.2629 47.45 31.4046 47.75 31.5879 48H27.6629C27.4462 47.4333 27.3129 46.7583 27.2629 45.975C27.2129 45.1917 27.1379 44.4417 27.0379 43.725C26.9046 42.7917 26.6212 42.1083 26.1879 41.675C25.7546 41.2417 25.0462 41.025 24.0629 41.025H20.1379V48H16.2129V30.15Z" fill="white"/>
</svg>
