<svg width="87" height="86" viewBox="0 0 87 86" fill="none" xmlns="http://www.w3.org/2000/svg">
<path d="M44.9038 41.4291H62.671C62.4885 34.9764 61.138 28.7152 58.7175 22.9125C54.2504 24.2095 49.6187 24.9234 44.9038 25.0495V41.4291Z" fill="black"/>
<path d="M60.3515 19.275C64.6969 17.7761 68.8567 15.7251 72.7108 13.088L73.6799 12.3459C66.5906 5.3263 57.0807 0.758356 46.5305 0L45.7617 0.624791C52.0156 5.80269 56.9605 12.1678 60.3515 19.275Z" fill="black"/>
<path d="M44.9038 3.79773V22.0814C49.1942 21.9597 53.409 21.3201 57.4783 20.1773C54.4701 14.0036 50.2197 8.43543 44.9038 3.79773Z" fill="black"/>
<path d="M62.0537 62.5281C66.6988 64.208 71.1362 66.4875 75.2396 69.4126L76.5278 70.3773C82.4284 63.276 86.0837 54.2514 86.4191 44.3987H65.6392C65.4715 50.6882 64.2427 56.8011 62.0537 62.5281Z" fill="black"/>
<path d="M14.1274 13.088C17.9816 15.7251 22.1429 17.7746 26.4867 19.275C29.8778 12.1693 34.8227 5.80417 41.078 0.624791L40.3093 0C29.7353 0.759841 20.2047 5.34708 13.1094 12.3919L14.1274 13.088Z" fill="black"/>
<path d="M41.9358 3.79773C36.6184 8.43543 32.3695 14.0051 29.3613 20.1759C33.4306 21.3186 37.6454 21.9597 41.9358 22.0799V3.79773Z" fill="black"/>
<path d="M21.2003 44.3972H0.418945C0.755828 54.2499 4.40959 63.273 10.3102 70.3758L11.5717 69.4334C15.69 66.4994 20.1362 64.2124 24.7888 62.5295C22.5953 56.798 21.368 50.6852 21.2003 44.3972Z" fill="black"/>
<path d="M25.28 21.9953C20.7729 20.4163 16.4572 18.2777 12.4517 15.5382L11.0597 14.5854C4.72421 21.8143 0.769184 31.1698 0.418945 41.4291H21.2003C21.3799 34.6618 22.7704 28.0904 25.28 21.9953Z" fill="black"/>
<path d="M24.1685 41.4291H41.9357V25.0495C37.2178 24.9233 32.5846 24.2095 28.1205 22.9154C25.7 28.7166 24.3495 34.9764 24.1685 41.4291Z" fill="black"/>
<path d="M40.9294 85.0695C34.3713 79.5859 29.2928 72.8126 25.924 65.2706C21.4837 66.8645 17.2408 69.0372 13.3213 71.8302L12.2988 72.5945C19.3837 80.0193 29.0836 84.9181 39.9098 85.7967L40.9294 85.0695Z" fill="black"/>
<path d="M41.9357 59.2942V44.3972H24.1685C24.3362 50.3617 25.5115 56.1569 27.6011 61.5827C32.221 60.1906 37.0294 59.4248 41.9357 59.2942Z" fill="black"/>
<path d="M73.4885 71.8094C69.5839 69.0268 65.3529 66.8601 60.92 65.2706C57.5482 72.8304 52.4638 79.6097 45.9116 85.074L46.9282 85.7967C57.7544 84.9181 67.4558 80.0207 74.5407 72.596L73.4885 71.8094Z" fill="black"/>
<path d="M74.4517 15.4907C70.415 18.254 66.0771 20.4044 61.5566 21.9909C64.0677 28.0874 65.4582 34.6603 65.6393 41.4291H86.4206C86.0689 31.1372 82.0916 21.7564 75.722 14.5186L74.4517 15.4907Z" fill="black"/>
<path d="M41.9358 82.0286V62.2624C37.4258 62.3885 33.0077 63.0875 28.7544 64.3401C31.7863 71.0317 36.2459 77.0659 41.9358 82.0286Z" fill="black"/>
<path d="M62.671 44.3972H44.9038V59.2942C49.8116 59.4248 54.6215 60.1906 59.2428 61.5827C61.3265 56.1584 62.5018 50.3632 62.671 44.3972Z" fill="black"/>
<path d="M58.0897 64.3401C53.8364 63.0875 49.4154 62.39 44.9038 62.2624V82.0346C50.5893 77.0882 55.0533 71.048 58.0897 64.3401Z" fill="black"/>
</svg>
