<svg width="45" height="63" viewBox="0 0 45 63" fill="none" xmlns="http://www.w3.org/2000/svg">
<path d="M18.7411 0.185112C11.902 1.05431 5.62152 5.30362 2.3599 11.2904C-0.439666 16.3847 -0.779865 23.1681 1.50794 28.5999C3.04127 32.2942 6.15667 36.0843 9.36955 38.2326C13.41 40.9369 17.3774 42.1677 22.3916 42.2886L25.1912 42.3611L25.3618 43.3028C25.8969 46.3203 24.0722 52.0905 20.2013 59.4782C18.3755 62.9308 18.3024 63.1484 18.9117 62.9067C20.445 62.3275 26.1894 57.2574 29.451 53.6355C43.3494 38.1118 48.2662 20.7781 41.6455 10.5904C36.8262 3.20266 27.6496 -0.949005 18.7411 0.185112Z" fill="#915CF7"/>
</svg>
