<svg width="123" height="123" viewBox="0 0 123 123" fill="none" xmlns="http://www.w3.org/2000/svg">
<g clip-path="url(#clip0)">
<path d="M60.54 34.07C59.1051 35.5048 57.1591 36.3109 55.13 36.3109C53.1008 36.3109 51.1548 35.5048 49.72 34.07C48.2851 32.6352 47.4791 30.6891 47.4791 28.66C47.4791 26.6309 48.2851 24.6848 49.72 23.25L62.72 10.3C69.3499 3.70307 78.3222 -0.000282288 87.675 -0.000282288C97.0278 -0.000282288 106 3.70307 112.63 10.3L112.7 10.38C119.266 17.0145 122.943 25.9753 122.93 35.3094C122.916 44.6435 119.214 53.594 112.63 60.21L99.63 73.16C98.1951 74.5948 96.2491 75.4009 94.22 75.4009C92.1908 75.4009 90.2448 74.5948 88.81 73.16C87.3751 71.7252 86.5691 69.7791 86.5691 67.75C86.5691 65.7209 87.3751 63.7748 88.81 62.34L101.81 49.34C105.525 45.5813 107.608 40.5097 107.608 35.225C107.608 29.9403 105.525 24.8687 101.81 21.11L101.7 21C97.9333 17.3036 92.863 15.2386 87.5856 15.2517C82.3082 15.2648 77.2482 17.3549 73.5 21.07L60.55 34.07H60.54ZM74.54 37.23C76.0034 35.9545 77.8971 35.2831 79.8372 35.3519C81.7772 35.4206 83.6186 36.2244 84.9881 37.6002C86.3576 38.9761 87.1529 40.8212 87.2126 42.7616C87.2724 44.7019 86.5922 46.5924 85.31 48.05L48.05 85.31C46.604 86.6832 44.679 87.4375 42.685 87.4122C40.6911 87.387 38.7858 86.5841 37.3751 85.1747C35.9644 83.7653 35.1598 81.8608 35.1327 79.8669C35.1056 77.8729 35.8581 75.9472 37.23 74.5L74.5 37.23H74.54ZM62.1 89.05C63.5472 87.6781 65.4729 86.9256 67.4668 86.9527C69.4608 86.9798 71.3653 87.7845 72.7747 89.1952C74.1841 90.6059 74.9869 92.5111 75.0122 94.5051C75.0375 96.499 74.2832 98.424 72.91 99.87L60.21 112.58C53.6061 119.152 44.6758 122.854 35.3587 122.88C26.0417 122.906 17.0907 119.255 10.45 112.72L10.17 112.45C3.62981 105.808 -0.0251977 96.8544 -0.000855752 87.5333C0.0234862 78.2122 3.72521 69.2773 10.3 62.67L23 50C23.6936 49.2291 24.5368 48.6074 25.4782 48.1724C26.4196 47.7375 27.4397 47.4986 28.4763 47.4701C29.5129 47.4416 30.5445 47.6241 31.5084 48.0067C32.4723 48.3892 33.3484 48.9637 34.0834 49.6953C34.8183 50.4269 35.3969 51.3003 35.7839 52.2624C36.1709 53.2245 36.3582 54.2553 36.3345 55.292C36.3108 56.3288 36.0766 57.3499 35.646 58.2933C35.2155 59.2367 34.5976 60.0828 33.83 60.78L21.12 73.49C17.4015 77.2508 15.3161 82.3263 15.3161 87.615C15.3161 92.9037 17.4015 97.9792 21.12 101.74C24.8791 105.469 29.9598 107.562 35.255 107.562C40.5502 107.562 45.6308 105.469 49.39 101.74L62.1 89.05Z" fill="#915CF7"/>
</g>

<defs>
<clipPath id="clip0">
<rect x="0" y="0" width="123" height="123"/>
</clipPath>
</defs>
</svg>